<svg xmlns="http://www.w3.org/2000/svg" viewBox="0 0 512 512">
  <rect width="512" height="512" fill="white"/>
  
  <g transform="translate(256, 256)">
    <!-- Left bracket < (gray, original thickness) -->
    <g stroke="#666666" stroke-width="9" stroke-linecap="square" fill="none">
      <line x1="-130" y1="-70" x2="-190" y2="-10"/>
      <line x1="-190" y1="10" x2="-130" y2="70"/>
    </g>
    
    <!-- Right bracket > (gray, original thickness) -->
    <g stroke="#666666" stroke-width="9" stroke-linecap="square" fill="none">
      <line x1="130" y1="-70" x2="190" y2="-10"/>
      <line x1="190" y1="10" x2="130" y2="70"/>
    </g>
    
    <!-- R letter (black) -->
    <g stroke="#1a1a1a" stroke-width="9" stroke-linecap="square" fill="none" transform="translate(-46, 0)">
      <line x1="-30" y1="-75" x2="-30" y2="-22"/>
      <line x1="-30" y1="22" x2="-30" y2="75"/>
      <line x1="-14" y1="-75" x2="18" y2="-75"/>
      <line x1="32" y1="-60" x2="32" y2="-25"/>
      <line x1="-14" y1="-10" x2="18" y2="-10"/>
      <line x1="6" y1="15" x2="40" y2="75"/>
    </g>
    
    <!-- K letter (black) -->
    <g stroke="#1a1a1a" stroke-width="9" stroke-linecap="square" fill="none" transform="translate(60, 0)">
      <line x1="-24" y1="-75" x2="-24" y2="-15"/>
      <line x1="-24" y1="15" x2="-24" y2="75"/>
      <line x1="-6" y1="-15" x2="38" y2="-75"/>
      <line x1="-6" y1="15" x2="38" y2="75"/>
    </g>
  </g>
</svg>